<svg width="76" height="73" viewBox="0 0 76 73" fill="none" xmlns="http://www.w3.org/2000/svg">
<rect x="0.443359" y="0.281738" width="48.9647" height="46.0844" rx="11.5211" fill="#F4E60B"/>
<path d="M27.0855 68.2975H19.7776C11.7054 68.2975 5.16162 61.7536 5.16162 53.6815V30.6892C5.16162 25.5782 7.83126 20.8386 12.2021 18.1896L30.472 7.11691C35.1283 4.29501 40.9667 4.29501 45.6229 7.11691L63.8929 18.1896C68.2638 20.8386 70.9334 25.5782 70.9334 30.6892V53.6815C70.9334 61.7536 64.3895 68.2975 56.3174 68.2975H49.0095M27.0855 68.2975V53.6815C27.0855 47.6272 31.9932 42.7196 38.0475 42.7196C44.1018 42.7196 49.0095 47.6272 49.0095 53.6815V68.2975M27.0855 68.2975H49.0095" stroke="#111111" stroke-width="8.64083" stroke-linecap="round" stroke-linejoin="round"/>
</svg>
