<svg width="44" height="52" viewBox="0 0 44 52" fill="none" xmlns="http://www.w3.org/2000/svg">
<path d="M39.6079 0H4.94957C2.53088 0 0.558838 1.97379 0.558838 4.39422V47.2028C0.558838 48.7143 1.38858 50.0847 2.72678 50.7821C3.31361 51.0877 3.95528 51.2444 4.58912 51.2444C5.40319 51.2444 6.20942 51.0015 6.89724 50.5157L22.2748 39.7535L37.6516 50.5157C38.8879 51.3776 40.4847 51.4873 41.8307 50.7899C43.1681 50.0925 43.9978 48.7221 43.9978 47.2107V4.39422C43.9978 1.97379 42.0336 0 39.6079 0ZM41.0637 47.2028C41.0637 47.7975 40.6484 48.0796 40.4768 48.1736C40.2966 48.2676 39.8352 48.44 39.3415 48.1031L23.1194 36.7532C22.6109 36.4005 21.9379 36.4005 21.4373 36.7532L5.22296 48.0952C4.73017 48.44 4.26872 48.2598 4.08849 48.1658C3.90827 48.0717 3.50167 47.7975 3.50167 47.195V4.39422C3.50167 3.59495 4.15118 2.94544 4.94957 2.94544H39.6079C40.4063 2.94544 41.0558 3.59495 41.0558 4.39422V47.2028H41.0637Z" fill="black" stroke="black" stroke-width="2.5"/>
</svg>
