<svg width="52" height="52" viewBox="0 0 52 52" fill="none" xmlns="http://www.w3.org/2000/svg">
  <path d="M25.0061 0.325383C11.2767 0.620537 0.307253 11.6257 0.0356072 25.3804C-0.243004 39.4528 10.9519 51.1536 24.9992 51.4627C25.1872 51.4705 25.3762 51.4705 25.5642 51.4705C30.0612 51.4705 34.4441 50.2995 38.3142 48.0637L45.6617 49.4236C46.6647 49.6047 47.6981 49.2878 48.4156 48.5625C49.1391 47.8373 49.456 46.8099 49.2749 45.8052L47.8949 38.3271C50.1351 34.3011 51.2443 29.7389 51.1085 25.1009C50.6784 11.1346 38.9854 0.0162989 25.0061 0.325383ZM45.013 38.3349L46.4836 46.3189C46.5062 46.432 46.454 46.5078 46.4087 46.5531C46.3634 46.5983 46.2877 46.6514 46.1745 46.6288L38.3063 45.1713C37.9668 45.1104 37.6124 45.1713 37.3181 45.3524C33.637 47.5883 29.389 48.7132 25.0592 48.6226C12.574 48.351 2.61624 37.9501 2.86525 25.4335C3.10642 13.212 12.8604 3.43016 25.0671 3.15851C25.2325 3.15851 25.3988 3.15067 25.5642 3.15067C37.763 3.15067 47.8949 12.9325 48.2719 25.1845C48.3999 29.4672 47.3368 33.6743 45.1784 37.3528C45.0052 37.648 44.9451 37.9953 45.013 38.3349Z" fill="black" stroke="black" stroke-width="2"/>
</svg>
