<svg width="78" height="46" viewBox="0 0 78 46" fill="none" xmlns="http://www.w3.org/2000/svg">
<path d="M76.5802 14.7964C76.5793 14.7964 76.5785 14.7958 76.5781 14.7949C75.756 12.7068 74.5917 10.8847 73.0852 9.32539C71.5784 7.76574 69.8118 6.55166 67.7946 5.67704C65.7743 4.80548 63.5676 4.36816 61.1714 4.36816C58.7752 4.36816 56.6113 4.80548 54.5849 5.67704C52.5554 6.54861 50.7919 7.76574 49.2943 9.32539C47.7936 10.885 46.6199 12.7077 45.7733 14.7964C44.9267 16.8851 44.5049 19.1358 44.5049 21.5487C44.5049 23.9616 44.9114 26.2399 45.7244 28.3286C46.5374 30.4173 47.6866 32.243 49.1689 33.8118C50.6513 35.3806 52.4118 36.6008 54.4473 37.4724C56.4829 38.3439 58.7263 38.7812 61.1714 38.7812C63.6165 38.7812 65.8294 38.3439 67.8588 37.4724C69.8852 36.6008 71.6457 35.3806 73.1372 33.8118C74.6287 32.243 75.781 30.4173 76.594 28.3286C77.407 26.2399 77.8135 23.9799 77.8135 21.5487C77.8135 19.1181 77.4041 16.883 76.5823 14.7978C76.582 14.7969 76.5812 14.7964 76.5802 14.7964ZM70.9122 27.7506C69.9647 29.6038 68.6565 31.0717 66.9908 32.1512C65.322 33.2338 63.3842 33.7751 61.1714 33.7751C58.9586 33.7751 57.0667 33.2338 55.3887 32.1512C53.7138 31.0687 52.3965 29.6038 51.4429 27.7506C50.4863 25.8974 50.0095 23.8301 50.0095 21.5487C50.0095 19.2673 50.4863 17.2062 51.4429 15.3621C52.3996 13.5181 53.7138 12.0593 55.3887 10.9859C57.0636 9.91254 58.9922 9.37737 61.1714 9.37737C63.3506 9.37737 65.322 9.9156 66.9908 10.9859C68.6596 12.0593 69.9647 13.5181 70.9122 15.3621C71.8596 17.2062 72.3334 19.2704 72.3334 21.5487C72.3334 23.827 71.8596 25.8974 70.9122 27.7506Z" fill="black"/>
<path d="M36.5557 45.6527H54.6067V40.9249H41.8616V12.4507H36.5557V45.6527Z" fill="black"/>
<path d="M32.7941 10.9795C32.7932 10.9795 32.7924 10.9789 32.792 10.9781C31.9699 8.88995 30.8056 7.06778 29.2991 5.50849C27.7923 3.94885 26.0257 2.73477 24.0085 1.86015C21.9882 0.988581 19.7815 0.55127 17.3853 0.55127C14.9891 0.55127 12.8251 0.988581 10.7987 1.86015C8.7693 2.73171 7.00576 3.94885 5.50812 5.50849C4.00743 7.06813 2.83378 8.89078 1.98716 10.9795C1.14054 13.0682 0.71875 15.3189 0.71875 17.7318C0.71875 20.1447 1.12525 22.423 1.93825 24.5117C2.75126 26.6004 3.90046 28.4261 5.38281 29.9949C6.86517 31.5637 8.62565 32.7839 10.6612 33.6555C12.6968 34.527 14.9402 34.9643 17.3853 34.9643C19.8304 34.9643 22.0432 34.527 24.0727 33.6555C26.0991 32.7839 27.8595 31.5637 29.3511 29.9949C30.8426 28.4261 31.9949 26.6004 32.8079 24.5117C33.6209 22.423 34.0274 20.163 34.0274 17.7318C34.0274 15.3012 33.618 13.0661 32.7962 10.9809C32.7958 10.98 32.795 10.9795 32.7941 10.9795ZM27.123 23.9337C26.1755 25.7869 24.8673 27.2548 23.2016 28.3343C21.5328 29.4169 19.5951 29.9582 17.3822 29.9582C15.1694 29.9582 13.2775 29.4169 11.5995 28.3343C9.92462 27.2518 8.60731 25.7869 7.65371 23.9337C6.69706 22.0805 6.22026 20.0132 6.22026 17.7318C6.22026 15.4504 6.69706 13.3893 7.65371 11.5452C8.61036 9.70118 9.92462 8.24245 11.5995 7.16905C13.2744 6.09565 15.203 5.56048 17.3822 5.56048C19.5614 5.56048 21.5328 6.09871 23.2016 7.16905C24.8704 8.24245 26.1755 9.70118 27.123 11.5452C28.0704 13.3893 28.5442 15.4535 28.5442 17.7318C28.5442 20.0101 28.0704 22.0805 27.123 23.9337Z" fill="black"/>
<path d="M21.1509 24.1448C23.9411 24.1448 26.2031 21.8816 26.2031 19.0897C26.2031 16.2979 23.9411 14.0347 21.1509 14.0347C18.3606 14.0347 16.0986 16.2979 16.0986 19.0897C16.0986 21.8816 18.3606 24.1448 21.1509 24.1448Z" fill="black"/>
<path d="M64.8637 28.4598C67.654 28.4598 69.916 26.1965 69.916 23.4047C69.916 20.6128 67.654 18.3496 64.8637 18.3496C62.0735 18.3496 59.8115 20.6128 59.8115 23.4047C59.8115 26.1965 62.0735 28.4598 64.8637 28.4598Z" fill="black"/>
</svg>
