<svg width="78" height="46" viewBox="0 0 78 46" fill="none" xmlns="http://www.w3.org/2000/svg">
<path d="M1.25546 15.1436C1.25638 15.1436 1.25721 15.143 1.25755 15.1421C2.07969 13.054 3.24399 11.2319 4.75045 9.67257C6.25725 8.11293 8.02385 6.89885 10.0411 6.02422C12.0613 5.15266 14.2681 4.71535 16.6643 4.71535C19.0605 4.71535 21.2244 5.15266 23.2508 6.02422C25.2803 6.89579 27.0438 8.11293 28.5414 9.67257C30.0421 11.2322 31.2158 13.0549 32.0624 15.1436C32.909 17.2323 33.3308 19.483 33.3308 21.8959C33.3308 24.3088 32.9243 26.5871 32.1113 28.6758C31.2983 30.7645 30.1491 32.5902 28.6667 34.159C27.1844 35.7278 25.4239 36.948 23.3884 37.8195C21.3528 38.6911 19.1094 39.1284 16.6643 39.1284C14.2192 39.1284 12.0063 38.6911 9.97689 37.8195C7.95049 36.948 6.19 35.7278 4.69848 34.159C3.20696 32.5902 2.0547 30.7645 1.2417 28.6758C0.428699 26.5871 0.0222009 24.3271 0.0222009 21.8959C0.0222009 19.4652 0.431571 17.2302 1.25337 15.145C1.25371 15.1441 1.25453 15.1436 1.25546 15.1436V15.1436ZM6.92354 28.0978C7.87102 29.951 9.17917 31.4189 10.8449 32.4984C12.5137 33.581 14.4515 34.1223 16.6643 34.1223C18.8771 34.1223 20.769 33.581 22.447 32.4984C24.1219 31.4158 25.4392 29.951 26.3928 28.0978C27.3494 26.2445 27.8262 24.1773 27.8262 21.8959C27.8262 19.6145 27.3494 17.5534 26.3928 15.7093C25.4361 13.8653 24.1219 12.4065 22.447 11.3331C20.7721 10.2597 18.8435 9.72456 16.6643 9.72456C14.4851 9.72456 12.5137 10.2628 10.8449 11.3331C9.17611 12.4065 7.87102 13.8653 6.92354 15.7093C5.97606 17.5534 5.50232 19.6176 5.50232 21.8959C5.50232 24.1742 5.97606 26.2445 6.92354 28.0978Z" fill="black"/>
<path d="M41.28 46.0001H23.229V41.2722H35.9741V12.798H41.28V46.0001Z" fill="black"/>
<path d="M45.0413 11.3269C45.0423 11.3269 45.0431 11.3263 45.0434 11.3255C45.8656 9.23736 47.0299 7.41519 48.5363 5.8559C50.0431 4.29626 51.8097 3.08218 53.827 2.20756C55.8472 1.33599 58.054 0.898682 60.4502 0.898682C62.8464 0.898682 65.0103 1.33599 67.0367 2.20756C69.0661 3.07912 70.8297 4.29626 72.3273 5.8559C73.828 7.41555 75.0017 9.23819 75.8483 11.3269C76.6949 13.4156 77.1167 15.6664 77.1167 18.0792C77.1167 20.4921 76.7102 22.7704 75.8972 24.8591C75.0842 26.9478 73.935 28.7735 72.4526 30.3423C70.9703 31.9111 69.2098 33.1313 67.1742 34.0029C65.1387 34.8744 62.8953 35.3118 60.4502 35.3118C58.0051 35.3118 55.7922 34.8744 53.7628 34.0029C51.7364 33.1313 49.9759 31.9111 48.4844 30.3423C46.9929 28.7735 45.8406 26.9478 45.0276 24.8591C44.2146 22.7704 43.8081 20.5104 43.8081 18.0792C43.8081 15.6486 44.2175 13.4135 45.0393 11.3283C45.0396 11.3274 45.0404 11.3269 45.0413 11.3269V11.3269ZM50.7125 24.2811C51.66 26.1343 52.9681 27.6022 54.6338 28.6817C56.3026 29.7643 58.2404 30.3056 60.4532 30.3056C62.6661 30.3056 64.558 29.7643 66.2359 28.6817C67.9108 27.5992 69.2281 26.1343 70.1817 24.2811C71.1384 22.4279 71.6152 20.3606 71.6152 18.0792C71.6152 15.7979 71.1384 13.7367 70.1817 11.8926C69.2251 10.0486 67.9108 8.58986 66.2359 7.51646C64.561 6.44306 62.6324 5.90789 60.4532 5.90789C58.274 5.90789 56.3026 6.44612 54.6338 7.51646C52.9651 8.58986 51.66 10.0486 50.7125 11.8926C49.765 13.7367 49.2913 15.8009 49.2913 18.0792C49.2913 20.3575 49.765 22.4279 50.7125 24.2811Z" fill="black"/>
<path d="M56.6848 24.4923C53.8946 24.4923 51.6326 22.229 51.6326 19.4372C51.6326 16.6453 53.8946 14.3821 56.6848 14.3821C59.4751 14.3821 61.7371 16.6453 61.7371 19.4372C61.7371 22.229 59.4751 24.4923 56.6848 24.4923Z" fill="black"/>
<path d="M12.9717 28.8071C10.1814 28.8071 7.91948 26.5439 7.91948 23.7521C7.91948 20.9602 10.1814 18.697 12.9717 18.697C15.762 18.697 18.0239 20.9602 18.0239 23.7521C18.0239 26.5439 15.762 28.8071 12.9717 28.8071Z" fill="black"/>
</svg>
