<svg width="53" height="52" viewBox="0 0 53 52" fill="none" xmlns="http://www.w3.org/2000/svg">
<!-- <mask id="mask0_590_119" style="mask-type:luminance" maskUnits="userSpaceOnUse" x="0" y="0" width="53" height="52">
<path d="M0.732422 0.0664062H52.2198V51.491H0.732422V0.0664062Z" fill="white"/>
</mask>
<g mask="url(#mask0_590_119)">
<path d="M48.8346 0.244151L3.83632 12.2601C2.14811 12.7103 0.95531 14.1286 0.805556 15.876C0.654932 17.6234 1.58567 19.2219 3.16853 19.9568L23.0901 29.1979L32.3348 49.1134C33.0174 50.5909 34.4505 51.4912 36.0481 51.4912C36.1683 51.4912 36.2963 51.4833 36.4164 51.4764C38.1647 51.3258 39.583 50.1338 40.0331 48.4456L52.0456 3.46211C52.2929 2.54705 52.0378 1.60151 51.363 0.926749C50.7022 0.251117 49.7497 0.00384929 48.8346 0.244151ZM37.3019 47.7177C37.0842 48.5283 36.379 48.6554 36.1613 48.6711C35.9436 48.6929 35.2306 48.6859 34.878 47.9284L25.4235 27.548C25.2815 27.2477 25.0412 27.0004 24.7409 26.8654L4.35437 17.4066C3.58906 17.054 3.58906 16.3339 3.61169 16.1232C3.62649 15.9134 3.75448 15.2012 4.56419 14.9836L49.2395 3.05638L37.3019 47.7177Z" fill="black"/>
</g> -->
<path d="M48.8346 0.244151L3.83632 12.2601C2.14811 12.7103 0.95531 14.1286 0.805556 15.876C0.654932 17.6234 1.58567 19.2219 3.16853 19.9568L23.0901 29.1979L32.3348 49.1134C33.0174 50.5909 34.4505 51.4912 36.0481 51.4912C36.1683 51.4912 36.2963 51.4833 36.4164 51.4764C38.1647 51.3258 39.583 50.1338 40.0331 48.4456L52.0456 3.46211C52.2929 2.54705 52.0378 1.60151 51.363 0.926749C50.7022 0.251117 49.7497 0.00384929 48.8346 0.244151ZM37.3019 47.7177C37.0842 48.5283 36.379 48.6554 36.1613 48.6711C35.9436 48.6929 35.2306 48.6859 34.878 47.9284L25.4235 27.548C25.2815 27.2477 25.0412 27.0004 24.7409 26.8654L4.35437 17.4066C3.58906 17.054 3.58906 16.3339 3.61169 16.1232C3.62649 15.9134 3.75448 15.2012 4.56419 14.9836L49.2395 3.05638L37.3019 47.7177Z" fill="black" stroke="black" stroke-width="1.8"/>
</svg>
