<svg width="536" height="417" viewBox="0 0 536 417" fill="none" xmlns="http://www.w3.org/2000/svg">
<path d="M526.718 99.4623C521.031 85.0033 512.945 72.3716 502.506 61.5674C492.044 50.7631 479.824 42.3573 465.844 36.3041C451.842 30.2738 436.538 27.2358 419.932 27.2358C403.326 27.2358 388.342 30.251 374.294 36.3041C360.246 42.3344 348.003 50.7631 337.632 61.5674C327.239 72.3716 319.107 85.0033 313.237 99.4623C307.367 113.921 304.443 129.522 304.443 146.243C304.443 162.963 307.252 178.724 312.894 193.183C318.536 207.642 326.485 220.296 336.764 231.169C347.043 242.019 359.241 250.471 373.357 256.524C387.474 262.554 403.006 265.592 419.955 265.592C436.904 265.592 452.254 262.577 466.301 256.524C480.349 250.494 492.547 242.042 502.894 231.169C513.242 220.319 521.214 207.642 526.856 193.183C532.498 178.724 535.307 163.077 535.307 146.243C535.307 129.408 532.452 113.921 526.764 99.4623H526.718ZM487.43 189.163C480.875 202 471.806 212.165 460.248 219.657C448.69 227.149 435.259 230.895 419.909 230.895C404.559 230.895 391.448 227.149 379.844 219.657C368.218 212.165 359.104 202 352.502 189.163C345.878 176.326 342.566 162.004 342.566 146.22C342.566 130.436 345.878 116.137 352.502 103.368C359.127 90.5996 368.241 80.4806 379.844 73.0569C391.448 65.6333 404.811 61.91 419.909 61.91C435.008 61.91 448.69 65.6333 460.248 73.0569C471.806 80.4806 480.852 90.5996 487.43 103.368C493.986 116.137 497.275 130.436 497.275 146.22C497.275 162.004 493.986 176.326 487.43 189.163Z" fill="black"/>
<path d="M249.348 313.172H374.431V280.417H286.101V83.2217H249.348V313.172Z" fill="black"/>
<path d="M223.262 73.0111C217.575 58.5521 209.489 45.9205 199.05 35.1162C188.588 24.3119 176.368 15.9061 162.388 9.85295C148.386 3.82266 133.082 0.784668 116.476 0.784668C99.8699 0.784668 84.8855 3.79982 70.8377 9.85295C56.7898 15.8832 44.5465 24.3119 34.1763 35.1162C23.7832 45.9205 15.6514 58.5521 9.781 73.0111C3.91061 87.4701 0.986816 103.071 0.986816 119.792C0.986816 136.512 3.79639 152.273 9.43837 166.732C15.0803 181.191 23.0294 193.845 33.3083 204.718C43.5872 215.568 55.7848 224.02 69.9012 230.073C84.0175 236.103 99.5501 239.141 116.499 239.141C133.448 239.141 148.775 236.126 162.845 230.073C176.893 224.042 189.091 215.591 199.438 204.718C209.786 193.868 217.758 181.191 223.399 166.732C229.041 152.273 231.851 136.626 231.851 119.792C231.851 102.957 228.996 87.4701 223.308 73.0111H223.262ZM183.974 162.734C177.419 175.572 168.35 185.736 156.792 193.229C145.234 200.721 131.803 204.467 116.453 204.467C101.103 204.467 87.9921 200.721 76.3883 193.229C64.7617 185.736 55.6477 175.572 49.0464 162.734C42.4222 149.897 39.1101 135.575 39.1101 119.792C39.1101 104.008 42.4222 89.7086 49.0464 76.9399C55.6706 64.1712 64.7846 54.0522 76.3883 46.6286C87.9921 39.2049 101.355 35.4817 116.453 35.4817C131.552 35.4817 145.234 39.2049 156.792 46.6286C168.35 54.0522 177.396 64.1712 183.974 76.9399C190.53 89.7086 193.819 104.008 193.819 119.792C193.819 135.575 190.53 149.897 183.974 162.734Z" fill="black"/>
<path d="M147.994 164.173C167.321 164.173 182.988 148.506 182.988 129.179C182.988 109.853 167.321 94.1855 147.994 94.1855C128.667 94.1855 113 109.853 113 129.179C113 148.506 128.667 164.173 147.994 164.173Z" fill="black"/>
<path d="M450.925 194.074C470.252 194.074 485.919 178.407 485.919 159.08C485.919 139.753 470.252 124.086 450.925 124.086C431.599 124.086 415.931 139.753 415.931 159.08C415.931 178.407 431.599 194.074 450.925 194.074Z" fill="black"/>
<path d="M333.407 416.235C352.683 416.235 368.309 400.608 368.309 381.332C368.309 362.056 352.683 346.43 333.407 346.43C314.131 346.43 298.504 362.056 298.504 381.332C298.504 400.608 314.131 416.235 333.407 416.235Z" fill="black"/>
</svg>