<svg width="624" height="141" viewBox="0 0 624 141" fill="none" xmlns="http://www.w3.org/2000/svg">
<path d="M304.864 42.7836C302.397 36.5137 298.891 31.0276 294.362 26.3499C289.833 21.6723 284.528 18.0093 278.456 15.3942C272.384 12.779 265.743 11.4673 258.541 11.4673C251.339 11.4673 244.838 12.779 238.742 15.3942C232.645 18.0176 227.34 21.664 222.836 26.3499C218.323 31.0358 214.801 36.5137 212.251 42.7836C209.71 49.0534 208.432 55.8183 208.432 63.0781C208.432 70.338 209.653 77.1688 212.095 83.4469C214.537 89.7168 217.993 95.2112 222.448 99.9218C226.911 104.632 232.199 108.295 238.321 110.919C244.442 113.542 251.182 114.846 258.541 114.846C265.9 114.846 272.549 113.534 278.646 110.919C284.743 108.304 290.031 104.632 294.519 99.9218C299.006 95.2112 302.463 89.7168 304.913 83.4469C307.355 77.1771 308.576 70.3875 308.576 63.0781C308.576 55.7688 307.339 49.0617 304.872 42.7836H304.864ZM287.82 81.7062C284.974 87.2748 281.038 91.6802 276.031 94.9307C271.015 98.1811 265.182 99.8063 258.533 99.8063C251.883 99.8063 246.191 98.1811 241.15 94.9307C236.11 91.6802 232.158 87.2748 229.287 81.7062C226.416 76.1376 224.981 69.9255 224.981 63.0781C224.981 56.2308 226.416 50.0269 229.287 44.483C232.158 38.9391 236.11 34.5585 241.15 31.3328C246.191 28.1071 251.982 26.4984 258.533 26.4984C265.083 26.4984 271.015 28.1154 276.031 31.3328C281.047 34.5585 284.974 38.9391 287.82 44.483C290.666 50.0269 292.093 56.2225 292.093 63.0781C292.093 69.9337 290.666 76.1376 287.82 81.7062Z" fill="black"/>
<path d="M184.54 135.495H238.807V121.288H200.487V35.7378H184.54V135.495Z" fill="black"/>
<path d="M173.231 31.3163C170.764 25.0465 167.258 19.5603 162.729 14.8827C158.191 10.1968 152.895 6.54211 146.823 3.92692C140.751 1.31173 134.11 0 126.908 0C119.706 0 113.205 1.31173 107.108 3.92692C101.012 6.55036 95.707 10.1968 91.2026 14.8827C86.69 19.5685 83.1673 25.0465 80.6181 31.3163C78.0772 37.5862 76.7985 44.351 76.7985 51.6109C76.7985 58.8707 78.0194 65.7015 80.4614 71.9797C82.9033 78.2495 86.36 83.7439 90.8149 88.4546C95.278 93.1652 100.566 96.8281 106.688 99.4515C112.809 102.075 119.549 103.378 126.908 103.378C134.267 103.378 140.916 102.067 147.013 99.4515C153.109 96.8363 158.397 93.1652 162.885 88.4546C167.373 83.7439 170.83 78.2495 173.28 71.9797C175.722 65.7098 176.943 58.9202 176.943 51.6109C176.943 44.3015 175.706 37.5944 173.239 31.3163H173.231ZM156.186 70.239C153.34 75.8076 149.413 80.213 144.397 83.4634C139.382 86.7138 133.549 88.3391 126.9 88.3391C120.25 88.3391 114.558 86.7138 109.517 83.4634C104.477 80.213 100.525 75.8076 97.654 70.239C94.7831 64.6703 93.3476 58.4582 93.3476 51.6109C93.3476 44.7635 94.7831 38.5597 97.654 33.0158C100.525 27.4719 104.477 23.0913 109.517 19.8656C114.558 16.6399 120.349 15.0312 126.9 15.0312C133.45 15.0312 139.382 16.6481 144.397 19.8656C149.413 23.0913 153.34 27.4719 156.186 33.0158C159.033 38.5597 160.46 44.7553 160.46 51.6109C160.46 58.4665 159.033 64.6703 156.186 70.239Z" fill="black"/>
<path d="M38.4607 121.817C34.0306 120.002 30.2191 117.461 27.0512 114.186C23.875 110.911 21.4331 107.083 19.7171 102.702C18.0012 98.3216 17.1514 93.5862 17.1514 88.4961C17.1514 83.406 18.0094 78.7613 19.7171 74.4054C21.4331 70.0495 23.875 66.2298 27.0512 62.9547C30.2274 59.6795 34.0306 57.1385 38.4607 55.3236C42.8909 53.5086 47.8325 52.6011 53.2774 52.6011C59.0193 52.6011 64.0434 53.3931 68.358 54.9854C72.6645 56.5693 75.7994 58.145 77.7711 59.7125L84.5689 46.1085C82.3002 44.0956 78.3486 42.0496 72.7057 39.9872C67.0628 37.9247 60.3145 36.8853 52.4524 36.8853C45.0936 36.8853 38.2297 38.2052 31.8609 40.8534C25.4837 43.5016 19.9234 47.1645 15.155 51.8504C10.3948 56.5363 6.67416 62.0307 4.00947 68.3253C1.33653 74.6282 6.10352e-05 81.426 6.10352e-05 88.7271C6.10352e-05 96.0282 1.33653 102.81 4.00947 109.055C6.68241 115.3 10.4113 120.761 15.1962 125.414C19.9811 130.075 25.5497 133.713 31.9021 136.337C38.2545 138.952 45.1018 140.264 52.4606 140.264C60.3227 140.264 67.0711 139.232 72.714 137.162C78.3568 135.099 82.3085 133.053 84.5772 131.04L77.7794 117.436C75.8159 118.996 72.681 120.571 68.3663 122.164C64.0599 123.748 59.0358 124.548 53.2856 124.548C47.8407 124.548 42.9074 123.64 38.469 121.825L38.4607 121.817Z" fill="black"/>
<path d="M138.227 70.8753C146.615 70.8753 153.415 64.0755 153.415 55.6874C153.415 47.2994 146.615 40.4995 138.227 40.4995C129.839 40.4995 123.039 47.2994 123.039 55.6874C123.039 64.0755 129.839 70.8753 138.227 70.8753Z" fill="black"/>
<path d="M269.646 83.8343C278.034 83.8343 284.834 77.0345 284.834 68.6464C284.834 60.2584 278.034 53.4585 269.646 53.4585C261.258 53.4585 254.458 60.2584 254.458 68.6464C254.458 77.0345 261.258 83.8343 269.646 83.8343Z" fill="black"/>
<path d="M336.188 133.861H337.165V132.884V78.6054C337.165 74.6996 338.16 70.3772 340.196 65.626C342.293 60.8326 345.21 56.7218 348.946 53.2836C352.683 49.9144 357.058 48.2372 362.117 48.2372C365.879 48.2372 369.022 48.727 371.572 49.6742L371.572 49.6742L371.58 49.6773C374.326 50.6689 376.031 51.6089 376.868 52.4454L377.814 53.3918L378.428 52.2021L384.19 41.0237L384.528 40.3677L383.989 39.863C382.6 38.5599 380.204 37.3939 376.96 36.3113C373.676 35.1123 369.757 34.5281 365.228 34.5281C359.247 34.5281 354.001 35.8273 349.526 38.463C345.143 40.9681 341.625 43.8456 338.999 47.1081L338.997 47.1104C338.312 47.9671 337.699 48.7934 337.165 49.5885V38.2711V37.2938H336.188H323.281H322.303V38.2711V132.884V133.861H323.281H336.188ZM458.277 113.784L458.276 113.785C455.844 116.438 452.497 118.829 448.197 120.942C444.066 122.933 438.845 123.955 432.491 123.955C424.723 123.955 418.358 122.221 413.332 118.822C408.26 115.39 404.461 110.884 401.923 105.289C399.571 99.9419 398.298 94.2187 398.11 88.1105H474.669H475.532L475.639 87.2544C475.722 86.588 475.761 85.7083 475.762 84.6328C475.838 83.5607 475.877 82.6634 475.877 81.9474C475.877 72.5985 474.007 64.3703 470.233 57.2925C466.541 50.1462 461.308 44.5561 454.542 40.5433C447.836 36.5203 439.935 34.5281 430.878 34.5281C420.899 34.5281 412.301 36.7121 405.128 41.1265L405.124 41.1291C398.054 45.528 392.63 51.5037 388.863 59.0384C385.099 66.5648 383.228 75.0146 383.228 84.3674C383.228 94.1743 385.097 103.04 388.854 110.947L388.857 110.954C392.698 118.87 398.234 125.156 405.458 129.788L405.458 129.788L405.469 129.795C412.797 134.365 421.588 136.627 431.8 136.627C438.785 136.627 444.845 135.813 449.961 134.16C455.138 132.512 459.631 130.112 463.425 126.951L463.427 126.949C467.27 123.733 470.638 119.894 473.53 115.438L473.964 114.77L473.396 114.21L465.214 106.143L464.242 105.185L463.648 106.415C462.63 108.522 460.856 110.977 458.277 113.784ZM457.746 63.4185L457.75 63.4275L457.754 63.4365C459.55 67.5802 460.539 71.502 460.748 75.208H398.791C399.329 71.2902 400.558 67.2602 402.492 63.1155C404.56 58.6843 407.853 54.9359 412.408 51.874L412.411 51.872C416.961 48.7899 423.125 47.2001 430.993 47.2001C438.546 47.2001 444.344 48.825 448.497 51.9583L448.505 51.9641L448.513 51.9697C452.834 55.0992 455.901 58.9149 457.746 63.4185ZM529.262 92.8279L562.5 133.502L562.793 133.861H563.257H578.93H581.016L579.681 132.258L538.826 83.2104L575.191 38.8911L576.501 37.2938H574.435H559.454H558.989L558.695 37.6551L529.612 73.4752L500.984 37.6609L500.69 37.2938H500.22H484.432H482.375L483.675 38.8884L520.157 83.668L479.534 132.257L478.193 133.861H480.284H495.38H495.845L496.138 133.501L529.262 92.8279Z" fill="black" stroke="black" stroke-width="1.95461"/>
<path d="M608.061 136.737C616.598 136.737 623.518 129.812 623.518 121.27C623.518 112.729 616.598 105.804 608.061 105.804C599.524 105.804 592.604 112.729 592.604 121.27C592.604 129.812 599.524 136.737 608.061 136.737Z" fill="#111111"/>
<path d="M598.01 125.626L598.153 125.542C597.565 124.282 597.263 122.887 597.246 121.358C597.229 119.829 597.506 118.384 598.061 117.107L597.909 117.023L593.955 114.797C593.888 114.948 593.812 115.099 593.753 115.251C592.964 117.132 592.586 119.182 592.611 121.408C592.637 123.635 593.065 125.634 593.888 127.499C593.955 127.65 594.022 127.793 594.098 127.944L598.01 125.626Z" fill="#111111"/>
<path d="M597.85 117.257L598.01 117.299C598.488 115.997 599.253 114.796 600.327 113.695C601.402 112.595 602.611 111.772 603.904 111.267L603.862 111.108L602.636 106.731C602.477 106.79 602.326 106.849 602.166 106.907C600.277 107.68 598.556 108.865 597.002 110.453C595.449 112.04 594.332 113.754 593.602 115.67C593.543 115.821 593.493 115.98 593.434 116.132L597.842 117.266L597.85 117.257Z" fill="#111111"/>
<path d="M603.662 111.201L603.746 111.344C605.006 110.756 606.399 110.453 607.928 110.436C609.456 110.42 610.9 110.697 612.176 111.251L612.26 111.1L614.485 107.143C614.334 107.076 614.183 107 614.032 106.942C612.151 106.152 610.102 105.774 607.877 105.799C605.652 105.824 603.654 106.253 601.79 107.076C601.639 107.143 601.496 107.21 601.345 107.286L603.662 111.201Z" fill="#111111"/>
<path d="M612.023 111.041L611.981 111.201C613.283 111.679 614.483 112.444 615.583 113.519C616.683 114.595 617.506 115.804 618.01 117.098L618.169 117.056L622.544 115.829C622.485 115.67 622.426 115.519 622.367 115.359C621.595 113.469 620.411 111.747 618.824 110.192C617.237 108.638 615.524 107.521 613.61 106.79C613.459 106.731 613.299 106.681 613.148 106.622L612.015 111.033L612.023 111.041Z" fill="#111111"/>
<path d="M618.12 116.921L617.977 117.005C618.565 118.265 618.867 119.659 618.884 121.188C618.901 122.717 618.624 124.162 618.07 125.439L618.221 125.523L622.175 127.75C622.242 127.598 622.318 127.447 622.377 127.296C623.166 125.414 623.544 123.364 623.519 121.138C623.493 118.912 623.065 116.912 622.242 115.047C622.175 114.896 622.108 114.753 622.033 114.602L618.12 116.921Z" fill="#111111"/>
<path d="M618.28 125.29L618.12 125.248C617.642 126.55 616.878 127.751 615.803 128.852C614.728 129.952 613.519 130.775 612.226 131.279L612.268 131.439L613.494 135.816C613.653 135.757 613.805 135.698 613.964 135.64C615.853 134.867 617.574 133.682 619.128 132.094C620.681 130.507 621.798 128.793 622.528 126.877C622.587 126.726 622.637 126.567 622.696 126.415L618.288 125.281L618.28 125.29Z" fill="#111111"/>
<path d="M612.468 131.346L612.384 131.204C611.125 131.792 609.731 132.094 608.203 132.111C606.675 132.128 605.231 131.851 603.955 131.296L603.871 131.447L601.646 135.404C601.797 135.471 601.948 135.547 602.099 135.606C603.98 136.395 606.028 136.773 608.253 136.748C610.478 136.723 612.477 136.295 614.341 135.471C614.492 135.404 614.635 135.337 614.786 135.261L612.468 131.346Z" fill="#111111"/>
<path d="M604.106 131.505L604.148 131.346C602.846 130.867 601.646 130.102 600.546 129.027C599.446 127.952 598.623 126.742 598.119 125.448L597.96 125.49L593.585 126.717C593.644 126.876 593.703 127.028 593.762 127.187C594.534 129.077 595.718 130.8 597.305 132.354C598.892 133.908 600.604 135.025 602.519 135.756C602.67 135.815 602.829 135.865 602.981 135.924L604.114 131.514L604.106 131.505Z" fill="#111111"/>
</svg>
