<svg width="75" height="73" viewBox="0 0 75 73" fill="none" xmlns="http://www.w3.org/2000/svg">
<rect x="21.6264" y="22.2816" width="48.9647" height="46.0844" rx="11.5211" fill="#F4E60B"/>
<path d="M26.2686 68.2974H18.9607C10.8885 68.2974 4.34473 61.7535 4.34473 53.6815V30.6891C4.34473 25.5782 7.01437 20.8385 11.3852 18.1895L29.6551 7.11685C34.3114 4.29495 40.1498 4.29495 44.8061 7.11685L63.076 18.1895C67.4469 20.8385 70.1165 25.5782 70.1165 30.6891V53.6815C70.1165 61.7535 63.5726 68.2974 55.5005 68.2974H48.1926M26.2686 68.2974V53.6815C26.2686 47.6272 31.1763 42.7195 37.2306 42.7195C43.2849 42.7195 48.1926 47.6272 48.1926 53.6815V68.2974M26.2686 68.2974H48.1926" stroke="#111111" stroke-width="8.64083" stroke-linecap="round" stroke-linejoin="round"/>
</svg>
