<svg width="1150" height="476" viewBox="0 0 1150 476" fill="none" xmlns="http://www.w3.org/2000/svg">
<path fill-rule="evenodd" clip-rule="evenodd" d="M469.914 55.9815C306.905 55.0972 115.691 47.7864 -95.9312 28.4217C-160.782 22.4873 -223.718 17.685 -284.511 13.8528C-380.452 7.05669 -517.184 0.500516 -685.602 0.777262C-865.49 0.478251 -1009.34 7.93192 -1106.12 15.1736C-1160.4 18.7721 -1216.34 23.1504 -1273.79 28.4219C-1951.85 90.6413 -2419.81 28.4217 -2419.81 28.4217V475.095H-127.765L-111.848 475.095L465.313 475.095L1062.83 475.095H3361.24V28.4216C3361.24 28.4216 2891.98 90.6412 2212.03 28.4218C2147.19 22.4886 2084.27 17.687 2023.49 13.8551C1927.53 7.05684 1790.75 0.497871 1622.27 0.77727C1442.45 0.481102 1298.65 7.93118 1201.88 15.1706C1147.59 18.7696 1091.64 23.1488 1034.17 28.4218C823.146 47.7858 632.469 55.0968 469.914 55.9815Z" fill="#00935C"/>
</svg>
