<svg width="65" height="73" viewBox="0 0 65 73" fill="none" xmlns="http://www.w3.org/2000/svg">
<path d="M20.5412 30.9228C20.5412 26.1506 24.4099 22.282 29.1821 22.282H35.4017C40.3395 22.282 44.0075 26.8545 42.9363 31.6747V31.6747C42.4344 33.9335 42.9722 36.2982 44.4018 38.1177L56.7706 53.8597C57.5699 54.877 58.1305 56.0608 58.4112 57.3238L58.5284 57.8511C59.7275 63.2474 55.6213 68.3664 50.0933 68.3664H29.1821C24.4099 68.3664 20.5412 64.4978 20.5412 59.7256V30.9228Z" fill="#F4E60B"/>
<path d="M4.90558 68.3251V64.3673C4.90558 49.0665 17.3093 36.6628 32.6101 36.6628C47.9109 36.6628 60.3147 49.0665 60.3147 64.3673V68.3251" stroke="#111111" stroke-width="8.64083" stroke-linecap="round" stroke-linejoin="round"/>
<path d="M32.6102 36.6631C41.3534 36.6631 48.4414 29.5751 48.4414 20.8319C48.4414 12.0886 41.3534 5.00073 32.6102 5.00073C23.8669 5.00073 16.7791 12.0886 16.7791 20.8319C16.7791 29.5751 23.8669 36.6631 32.6102 36.6631Z" stroke="#111111" stroke-width="8.64083" stroke-linecap="round" stroke-linejoin="round"/>
</svg>
