<svg width="56" height="70" viewBox="0 0 56 70" fill="none" xmlns="http://www.w3.org/2000/svg">
<path d="M19.6124 26.119C19.6124 22.9375 22.1915 20.3585 25.373 20.3585H48.4152C51.5966 20.3585 54.1757 22.9375 54.1757 26.119V57.802C54.1757 60.9835 51.5966 63.5626 48.4152 63.5626H47.4081C46.1907 63.5626 45.0045 63.1769 44.0199 62.4608L31.5831 53.4158C30.3712 52.5345 28.8636 52.16 27.3802 52.3719L26.1876 52.5423C22.7173 53.0381 19.6124 50.3452 19.6124 46.8397V26.119Z" fill="#F4E60B"/>
<path d="M4.73621 64.7052V11.432C4.73621 7.75429 7.71761 4.77289 11.3954 4.77289H44.6911C48.3689 4.77289 51.3502 7.75429 51.3502 11.432V64.7052L31.6441 52.0371C29.4506 50.6267 26.6358 50.6267 24.4423 52.0371L4.73621 64.7052Z" stroke="#111111" stroke-width="8.64083" stroke-linecap="round" stroke-linejoin="round"/>
</svg>
