<svg width="716" height="716" viewBox="0 0 716 716" fill="none" xmlns="http://www.w3.org/2000/svg">
<path d="M0.222168 358.172C0.222168 555.657 160.316 715.953 357.801 715.953C555.287 715.953 715.38 555.657 715.38 358.172C715.38 160.686 555.287 0.390625 357.801 0.390625C160.316 0.390625 0.222168 160.686 0.222168 358.172Z" fill="#F4E60B"/>
<path d="M602.404 263.592C602.398 263.592 602.392 263.589 602.39 263.583C596.769 249.306 588.808 236.847 578.508 226.186C568.205 215.522 556.127 207.221 542.335 201.241C528.521 195.282 513.433 192.292 497.05 192.292C480.666 192.292 465.871 195.282 452.016 201.241C438.14 207.2 426.082 215.522 415.842 226.186C405.582 236.85 397.557 249.311 391.769 263.592C385.98 277.873 383.096 293.263 383.096 309.76C383.096 326.257 385.876 341.835 391.434 356.116C396.993 370.397 404.85 382.88 414.986 393.606C425.121 404.332 437.158 412.675 451.075 418.634C464.993 424.593 480.332 427.584 497.05 427.584C513.768 427.584 528.897 424.593 542.773 418.634C556.628 412.675 568.665 404.332 578.863 393.606C589.061 382.88 596.939 370.397 602.498 356.116C608.057 341.835 610.836 326.383 610.836 309.76C610.836 293.141 608.037 277.86 602.418 263.602C602.416 263.596 602.41 263.592 602.404 263.592ZM563.65 352.164C557.172 364.835 548.228 374.871 536.838 382.252C525.428 389.654 512.18 393.355 497.05 393.355C481.92 393.355 468.985 389.654 457.512 382.252C446.06 374.85 437.053 364.835 430.533 352.164C423.992 339.493 420.732 325.358 420.732 309.76C420.732 294.162 423.992 280.069 430.533 267.461C437.074 254.852 446.06 244.879 457.512 237.54C468.964 230.2 482.15 226.541 497.05 226.541C511.95 226.541 525.428 230.221 536.838 237.54C548.248 244.879 557.172 254.852 563.65 267.461C570.128 280.069 573.367 294.183 573.367 309.76C573.367 325.337 570.128 339.493 563.65 352.164Z" fill="black"/>
<path d="M328.742 474.566H452.162V442.24H365.02V247.555H328.742V474.566Z" fill="black"/>
<path d="M303.028 237.498C303.021 237.498 303.016 237.494 303.013 237.488C297.392 223.211 289.432 210.753 279.131 200.091C268.829 189.428 256.75 181.127 242.958 175.147C229.145 169.188 214.057 166.198 197.673 166.198C181.29 166.198 166.494 169.188 152.639 175.147C138.764 181.106 126.706 189.428 116.466 200.091C106.205 210.755 98.1808 223.217 92.3922 237.498C86.6036 251.779 83.7197 267.168 83.7197 283.665C83.7197 300.163 86.4991 315.74 92.0578 330.021C97.6165 344.302 105.474 356.785 115.609 367.512C125.744 378.238 137.781 386.581 151.699 392.54C165.617 398.499 180.955 401.489 197.673 401.489C214.391 401.489 229.521 398.499 243.397 392.54C257.252 386.581 269.289 378.238 279.487 367.512C289.685 356.785 297.563 344.302 303.122 330.021C308.68 315.74 311.46 300.288 311.46 283.665C311.46 267.046 308.661 251.765 303.042 237.508C303.04 237.502 303.034 237.498 303.028 237.498ZM264.252 326.069C257.774 338.74 248.83 348.777 237.441 356.158C226.031 363.56 212.782 367.261 197.652 367.261C182.523 367.261 169.587 363.56 158.115 356.158C146.663 348.756 137.656 338.74 131.136 326.069C124.595 313.398 121.335 299.264 121.335 283.665C121.335 268.067 124.595 253.974 131.136 241.366C137.677 228.758 146.663 218.784 158.115 211.445C169.566 204.106 182.753 200.447 197.652 200.447C212.552 200.447 226.031 204.127 237.441 211.445C248.851 218.784 257.774 228.758 264.252 241.366C270.731 253.974 273.97 268.088 273.97 283.665C273.97 299.243 270.731 313.398 264.252 326.069Z" fill="black"/>
<path d="M223.419 327.512C242.497 327.512 257.963 312.038 257.963 292.949C257.963 273.861 242.497 258.386 223.419 258.386C204.342 258.386 188.876 273.861 188.876 292.949C188.876 312.038 204.342 327.512 223.419 327.512Z" fill="black"/>
<path d="M522.294 357.016C541.372 357.016 556.837 341.541 556.837 322.453C556.837 303.364 541.372 287.89 522.294 287.89C503.216 287.89 487.75 303.364 487.75 322.453C487.75 341.541 503.216 357.016 522.294 357.016Z" fill="black"/>
<path d="M411.684 576.311C430.704 576.311 446.123 560.883 446.123 541.853C446.123 522.822 430.704 507.394 411.684 507.394C392.664 507.394 377.245 522.822 377.245 541.853C377.245 560.883 392.664 576.311 411.684 576.311Z" fill="black"/>
</svg>
